HIERARCHY
ROOT Pelvis
{
	OFFSET 0.000000 0.000000 0.000000
	CHANNELS 6 Xposition Yposition Zposition Xrotation Yrotation Zrotation
	JOINT LeftUpLeg_virtual
	{
		OFFSET 0.000000 0.000000 0.000000
		CHANNELS 3 Xrotation Yrotation Zrotation
		JOINT LeftUpLeg
		{
			OFFSET 18.735201 -5.666702 -4.541200
			CHANNELS 3 Xrotation Yrotation Zrotation
			JOINT LeftLeg
			{
				OFFSET -0.021200 -31.938179 0.493100
				CHANNELS 3 Xrotation Yrotation Zrotation
				JOINT LeftFoot
				{
					OFFSET 0.021200 -31.938179 -4.336299
					CHANNELS 3 Xrotation Yrotation Zrotation
					JOINT LeftToeBase
					{
						OFFSET 0.943001 -26.722000 15.023500
						CHANNELS 3 Xrotation Yrotation Zrotation
						End Site
						{
							OFFSET 0 0 0
						}
					}
				}
			}
		}
	}
	JOINT RightUpLeg_virtual
	{
		OFFSET 0.000000 0.000000 0.000000
		CHANNELS 3 Xrotation Yrotation Zrotation
		JOINT RightUpLeg
		{
			OFFSET -18.735201 -5.666702 -4.541200
			CHANNELS 3 Xrotation Yrotation Zrotation
			JOINT RightLeg
			{
				OFFSET 0.018946 -31.938133 0.493100
				CHANNELS 3 Xrotation Yrotation Zrotation
				JOINT RightFoot
				{
					OFFSET -0.018946 -31.938126 -4.336299
					CHANNELS 3 Xrotation Yrotation Zrotation
					JOINT RightToeBase
					{
						OFFSET -0.943001 -26.722004 15.023500
						CHANNELS 3 Xrotation Yrotation Zrotation
						End Site
						{
							OFFSET 0 0 0
						}
					}
				}
			}
		}
	}
	JOINT Hips_virtual
	{
		OFFSET 0.000000 0.000000 0.000000
		CHANNELS 3 Xrotation Yrotation Zrotation
		JOINT Hips
		{
			OFFSET -0.000000 -0.000000 -0.000000
			CHANNELS 3 Xrotation Yrotation Zrotation
			JOINT Spine
			{
				OFFSET 0.000000 10.199997 -0.299500
				CHANNELS 3 Xrotation Yrotation Zrotation
				JOINT Spine1
				{
					OFFSET 0.000000 11.900002 -1.516600
					CHANNELS 3 Xrotation Yrotation Zrotation
					JOINT Spine2
					{
						OFFSET 0.000000 13.600006 -2.842500
						CHANNELS 3 Xrotation Yrotation Zrotation
						JOINT Neck_virtual
						{
							OFFSET 0.000000 0.000000 0.000000
							CHANNELS 3 Xrotation Yrotation Zrotation
							JOINT Neck
							{
								OFFSET 0.000000 9.624100 -2.890100
								CHANNELS 3 Xrotation Yrotation Zrotation
								JOINT Head
								{
									OFFSET 0.000000 14.068802 -1.351900
									CHANNELS 3 Xrotation Yrotation Zrotation
									End Site
									{
										OFFSET 0 0 0
									}
								}
							}
						}
						JOINT LeftShoulder_virtual
						{
							OFFSET 0.000000 0.000000 0.000000
							CHANNELS 3 Xrotation Yrotation Zrotation
							JOINT LeftShoulder
							{
								OFFSET 15.263000 10.923401 -0.547700
								CHANNELS 3 Xrotation Yrotation Zrotation
								JOINT LeftArm
								{
									OFFSET 25.438599 -2.830597 -13.032500
									CHANNELS 3 Xrotation Yrotation Zrotation
									JOINT LeftForeArm
									{
										OFFSET 29.960503 0.000000 0.000000
										CHANNELS 3 Xrotation Yrotation Zrotation
										JOINT LeftHand
										{
											OFFSET 27.849251 0.000000 0.000000
											CHANNELS 3 Xrotation Yrotation Zrotation
											End Site
											{
												OFFSET 0 0 0
											}
										}
									}
								}
							}
						}
						JOINT RightShoulder_virtual
						{
							OFFSET 0.000000 0.000000 0.000000
							CHANNELS 3 Xrotation Yrotation Zrotation
							JOINT RightShoulder
							{
								OFFSET -15.263000 10.923401 -0.547700
								CHANNELS 3 Xrotation Yrotation Zrotation
								JOINT RightArm
								{
									OFFSET -25.438599 -2.830597 -13.032500
									CHANNELS 3 Xrotation Yrotation Zrotation
									JOINT RightForeArm
									{
										OFFSET -29.960503 0.000000 0.000000
										CHANNELS 3 Xrotation Yrotation Zrotation
										JOINT RightHand
										{
											OFFSET -27.849251 0.000000 0.000000
											CHANNELS 3 Xrotation Yrotation Zrotation
											End Site
											{
												OFFSET 0 0 0
											}
										}
									}
								}
							}
						}
					}
				}
			}
		}
	}
}
MOTION
Frames: 7
Frame Time: 0.03333333
0.950363 80.031067 17.709236 0.000000 0.000000 0.000000 -0.588264 -33.584747 2.937517 -45.139641 -0.208695 18.910311 54.691346 -5.509627 -1.258337 -1.567640 -4.847501 -12.067420 0.000000 0.000000 0.000000 11.184538 -29.874821 -1.642161 -17.403763 -13.468243 -21.710084 43.756497 -1.480200 -0.716760 -12.260349 -4.507503 9.110275 0.000000 0.000000 0.000000 -0.738226 -18.218450 1.274649 -1.150809 -7.392644 -5.466073 12.562735 5.660823 -4.979712 5.454122 2.799025 -2.216219 0.000000 0.000000 0.000000 4.531217 1.826239 -0.942768 0.253463 1.460647 0.107269 0.000000 0.000000 0.000000 4.309553 1.598080 -0.902068 1.382398 3.065343 -6.371607 -53.157317 -17.618393 -57.094115 -96.620710 -82.246905 -90.984369 0.000000 0.000000 0.000000 4.800720 2.410554 -2.239605 2.994323 14.629734 -5.148951 -39.581718 31.268025 47.361966 -152.848050 80.154039 149.880537 0.000000 0.000000 0.000000 
0.869896 79.815781 16.834133 0.000000 0.000000 0.000000 -0.714816 -34.451300 3.263084 -45.425406 -0.612739 19.179407 54.828521 -5.245157 -1.686625 -1.403600 -4.391478 -12.505214 0.000000 0.000000 0.000000 11.293323 -31.081213 -1.445634 -17.520267 -13.824020 -21.808282 44.237216 -1.950013 -0.108600 -12.288225 -5.238977 9.709674 0.000000 0.000000 0.000000 -1.200685 -19.385731 1.234328 -1.709588 -8.058746 -5.503886 12.407932 5.458802 -4.755634 5.313652 2.683467 -2.079501 0.000000 0.000000 0.000000 4.525796 1.844062 -0.934614 0.299402 1.539702 0.054216 0.000000 0.000000 0.000000 4.270604 1.496656 -0.841231 1.436319 3.061081 -6.454527 -53.411553 -17.270558 -56.886808 -94.278802 -82.118675 -88.603017 0.000000 0.000000 0.000000 4.763109 2.346338 -2.181704 3.109858 14.711172 -5.087525 -39.687675 30.884107 48.414379 -153.501494 79.677094 150.690926 0.000000 0.000000 0.000000 
0.775631 79.623650 15.931792 0.000000 0.000000 0.000000 -0.866540 -35.269953 3.576132 -45.740073 -1.008825 19.445212 54.961651 -5.014646 -2.072407 -1.210395 -3.996358 -12.913462 0.000000 0.000000 0.000000 11.424779 -32.193311 -1.247067 -17.614930 -14.158272 -21.907191 44.758366 -2.349568 0.465765 -12.289512 -5.878073 10.288500 0.000000 0.000000 0.000000 -1.624885 -20.473803 1.185778 -2.100815 -8.655474 -5.571897 12.270125 5.262423 -4.536906 5.180882 2.570739 -1.943668 0.000000 0.000000 0.000000 4.529054 1.854520 -0.935858 0.347774 1.612337 -0.003164 0.000000 0.000000 0.000000 4.220489 1.406775 -0.790270 1.482036 3.090822 -6.570828 -53.608239 -16.890361 -56.662645 -91.474982 -81.975445 -85.767553 0.000000 0.000000 0.000000 4.713315 2.272707 -2.125741 3.207968 14.742111 -5.023404 -39.722348 30.504082 49.473157 -154.118765 79.194418 151.484990 0.000000 0.000000 0.000000 
0.676232 79.436707 14.993034 0.000000 0.000000 0.000000 -1.012354 -36.005684 3.900651 -46.046021 -1.390472 19.723718 55.132013 -4.821929 -2.406060 -0.953603 -3.672467 -13.282671 0.000000 0.000000 0.000000 11.521527 -33.055373 -1.073726 -17.730852 -14.413210 -21.988776 45.235212 -2.619943 0.952484 -12.302115 -6.353928 10.812150 0.000000 0.000000 0.000000 -2.020149 -21.446835 1.146346 -2.365785 -9.079884 -5.563257 12.148057 5.074093 -4.320212 5.055393 2.462725 -1.807036 0.000000 0.000000 0.000000 4.557341 1.862731 -0.934118 0.406297 1.681483 -0.057816 0.000000 0.000000 0.000000 4.169375 1.325997 -0.745610 1.526974 3.142467 -6.705265 -53.720022 -16.522286 -56.435251 -88.353162 -81.823098 -82.635768 0.000000 0.000000 0.000000 4.659769 2.192409 -2.076803 3.298917 14.736912 -4.984690 -39.689847 30.198315 50.550804 -154.870523 78.667578 152.439632 0.000000 0.000000 0.000000 
0.563943 79.295471 14.013409 0.000000 0.000000 0.000000 -1.157678 -36.635311 4.222675 -46.342106 -1.747030 20.004296 55.336560 -4.666043 -2.678612 -0.636996 -3.422945 -13.599524 0.000000 0.000000 0.000000 11.444503 -33.596652 -1.044459 -17.984281 -14.526810 -22.118359 45.433298 -2.786578 1.269141 -12.447022 -6.661716 11.150494 0.000000 0.000000 0.000000 -2.392494 -22.316605 1.112772 -2.583704 -9.367734 -5.512460 12.026373 4.891416 -4.103160 4.929338 2.358418 -1.669170 0.000000 0.000000 0.000000 4.605142 1.868394 -0.921863 0.472963 1.746363 -0.104988 0.000000 0.000000 0.000000 4.114186 1.249582 -0.706836 1.567254 3.196983 -6.854581 -53.795028 -16.184263 -56.260217 -85.518982 -81.656776 -79.817017 0.000000 0.000000 0.000000 4.615460 2.113097 -2.054760 3.408407 14.726525 -5.057162 -39.615452 30.066824 51.620094 -156.092963 78.000699 153.876649 0.000000 0.000000 0.000000 
0.446881 79.216805 12.985432 0.000000 0.000000 0.000000 -1.339078 -37.117843 4.500941 -46.650516 -2.060869 20.258852 55.519466 -4.531968 -2.893088 -0.299681 -3.228949 -13.854625 0.000000 0.000000 0.000000 11.302574 -33.849687 -1.089705 -18.257476 -14.540742 -22.250936 45.587620 -2.831415 1.467444 -12.570261 -6.804284 11.400772 0.000000 0.000000 0.000000 -2.727571 -23.098658 1.091458 -2.709592 -9.557798 -5.386903 11.917174 4.712511 -3.874632 4.810373 2.256725 -1.524168 0.000000 0.000000 0.000000 4.659435 1.867774 -0.912391 0.541290 1.804507 -0.151528 0.000000 0.000000 0.000000 4.059872 1.176197 -0.669134 1.605534 3.244127 -6.995534 -53.824507 -15.914587 -56.132451 -83.136810 -81.502872 -77.477739 0.000000 0.000000 0.000000 4.562909 2.030873 -2.035909 3.502446 14.686792 -5.136949 -39.537206 29.937044 52.674224 -157.208716 77.307168 155.207866 0.000000 0.000000 0.000000 
0.342469 79.175827 11.927084 0.000000 0.000000 0.000000 -1.581466 -37.424973 4.723008 -46.992890 -2.326564 20.484255 55.654690 -4.436870 -3.046225 0.039204 -3.106642 -14.052876 0.000000 0.000000 0.000000 11.154669 -33.900141 -1.166131 -18.497090 -14.496023 -22.368335 45.772168 -2.760889 1.601595 -12.630717 -6.814464 11.639181 0.000000 0.000000 0.000000 -3.005245 -23.775175 1.090741 -2.662585 -9.619955 -5.141751 11.848387 4.535148 -3.614424 4.714487 2.156026 -1.360445 0.000000 0.000000 0.000000 4.704958 1.859760 -0.918601 0.603504 1.855063 -0.204191 0.000000 0.000000 0.000000 4.017472 1.106884 -0.630998 1.650876 3.285913 -7.119297 -53.790475 -15.713274 -56.027731 -80.977049 -81.369123 -75.385146 0.000000 0.000000 0.000000 4.506856 1.948175 -2.020103 3.584355 14.625037 -5.223094 -39.453242 29.805235 53.656231 -158.191593 76.630317 156.392071 0.000000 0.000000 0.000000 
